<?xml version="1.0" encoding="utf-8"?><svg xml:space="preserve" viewBox="0 0 100 100" y="0" x="0" xmlns="http://www.w3.org/2000/svg" id="圖層_1" version="1.1" width="47px" height="47px" xmlns:xlink="http://www.w3.org/1999/xlink" style="width:100%;height:100%;background-size:initial;background-repeat-y:initial;background-repeat-x:initial;background-position-y:initial;background-position-x:initial;background-origin:initial;background-image:initial;background-color:rgb(241, 242, 243);background-clip:initial;background-attachment:initial;animation-play-state:paused" ><g class="ldl-scale" style="transform-origin:50% 50%;transform:rotate(0deg) scale(0.8, 0.8);animation-play-state:paused" ><path stroke-miterlimit="10" stroke-width="3.5" stroke="#333" fill="#a0c8d7" d="M62.1 30.5v-5.6H37.9v5.6c0 3.8-3.1 6.8-6.8 6.8h-1.4c-5.7 0-10.3 4.6-10.3 10.3v32.2C19.4 85.4 24 90 29.6 90h40.9c5.6 0 10.2-4.6 10.2-10.2V47.6c0-5.7-4.6-10.3-10.3-10.3H69c-3.9 0-6.9-3-6.9-6.8z" style="stroke:rgb(152, 79, 72);fill:rgb(128, 170, 243);animation-play-state:paused" ></path>
<path stroke-miterlimit="10" stroke-width="3.5" stroke="#333" fill="#ccc" d="M65.6 30.5H34.4c-3.4 0-6.2-2.8-6.2-6.2v-8c0-3.4 2.8-6.2 6.2-6.2h31.2c3.4 0 6.2 2.8 6.2 6.2v8c0 3.4-2.8 6.2-6.2 6.2z" style="stroke:rgb(152, 79, 72);fill:rgb(247, 250, 248);animation-play-state:paused" ></path>
<path stroke-linejoin="round" stroke="#333" fill="#e0e0e0" stroke-miterlimit="10" stroke-width="3.5" d="M80.6 77.8V47.5H19.4v30.3h61.2z" style="stroke:rgb(152, 79, 72);fill:rgb(76, 86, 48);animation-play-state:paused" ></path>
<path stroke-miterlimit="10" stroke-width="3.5" stroke="#000" opacity=".2" d="M80.6 47.5c-.1-5.6-4.6-10.2-10.3-10.2h-1.4c-3.8 0-6.8-3.1-6.8-6.8h3.5c3.4 0 6.2-2.8 6.2-6.2v-8c0-3.4-2.8-6.2-6.2-6.2H51.4c3.4 0 6.2 2.8 6.2 6.2v8c0 3.4-2.8 6.2-6.2 6.2h-3.5c0 3.8 3.1 6.8 6.8 6.8h1.4c5.7 0 10.2 4.6 10.3 10.2h0v32.3c0 5.6-4.6 10.2-10.2 10.2h14.2c5.6 0 10.2-4.6 10.2-10.2V47.5h0z" style="stroke:rgb(83, 154, 85);fill:rgb(83, 154, 85);animation-play-state:paused" ></path>
<path d="M33.9 24.4v.5" stroke-miterlimit="10" stroke-width="3.5" stroke="#fff" fill="none" stroke-linecap="round" style="stroke:rgb(179, 196, 48);animation-play-state:paused" ></path>
<path d="M33.9 15.7v4.1" stroke-miterlimit="10" stroke-width="3.5" stroke="#fff" fill="none" stroke-linecap="round" style="stroke:rgb(179, 196, 48);animation-play-state:paused" ></path>
<path d="M25.5 59.7v1.5" stroke-linejoin="round" stroke-linecap="round" stroke="#fff" fill="none" stroke-miterlimit="10" stroke-width="3.5" style="stroke:rgb(179, 196, 48);animation-play-state:paused" ></path>
<path d="M25.5 45.8v8.7" stroke-linejoin="round" stroke-linecap="round" stroke="#fff" fill="none" stroke-miterlimit="10" stroke-width="3.5" style="stroke:rgb(179, 196, 48);animation-play-state:paused" ></path>
<metadata xmlns:d="https://loading.io/stock/" style="animation-play-state:paused" ><d:name style="animation-play-state:paused" >bottle</d:name>
<d:tags style="animation-play-state:paused" >bottle,syrup,remedy,antidote,medicine</d:tags>
<d:license style="animation-play-state:paused" >by</d:license>
<d:slug style="animation-play-state:paused" >rjmlbc</d:slug></metadata></g><!-- generated by https://loading.io/ --></svg>