<?xml version="1.0" encoding="utf-8"?><svg xml:space="preserve" viewBox="0 0 100 100" y="0" x="0" xmlns="http://www.w3.org/2000/svg" id="圖層_1" version="1.1" width="47px" height="47px" xmlns:xlink="http://www.w3.org/1999/xlink" style="width:100%;height:100%;background-size:initial;background-repeat-y:initial;background-repeat-x:initial;background-position-y:initial;background-position-x:initial;background-origin:initial;background-image:initial;background-color:rgb(241, 242, 243);background-clip:initial;background-attachment:initial;animation-play-state:paused" ><g class="ldl-scale" style="transform-origin:50% 50%;transform:rotate(0deg) scale(0.8, 0.8);animation-play-state:paused" ><path fill="#e0e0e0" d="M33.3 91.2L8.8 66.7c-1.8-1.8-1.8-4.6 0-6.4L60.3 8.8c1.8-1.8 4.6-1.8 6.4 0l24.5 24.5c1.8 1.8 1.8 4.6 0 6.4L39.7 91.2c-1.8 1.7-4.6 1.7-6.4 0z" style="fill:rgb(76, 86, 48);animation-play-state:paused" ></path>
<circle r="5.8" stroke-miterlimit="10" stroke-width="2" stroke="#ccc" fill="#fff" cy="23" cx="63.5" transform="rotate(-45.001 63.478 23.045)" style="stroke:rgb(247, 250, 248);fill:rgb(179, 196, 48);animation-play-state:paused" ></circle>
<circle r="5.8" stroke-miterlimit="10" stroke-width="2" stroke="#ccc" fill="#fff" cy="36.5" cx="77" transform="rotate(-45.001 76.955 36.523)" style="stroke:rgb(247, 250, 248);fill:rgb(179, 196, 48);animation-play-state:paused" ></circle>
<circle r="5.8" stroke-miterlimit="10" stroke-width="2" stroke="#ccc" fill="#fff" cy="36.5" cx="50" transform="rotate(-45.001 50 36.523)" style="stroke:rgb(247, 250, 248);fill:rgb(179, 196, 48);animation-play-state:paused" ></circle>
<circle r="5.8" stroke-miterlimit="10" stroke-width="2" stroke="#ccc" fill="#fff" cy="50" cx="63.5" transform="rotate(-45.001 63.477 50)" style="stroke:rgb(247, 250, 248);fill:rgb(179, 196, 48);animation-play-state:paused" ></circle>
<circle r="5.8" stroke-miterlimit="10" stroke-width="2" stroke="#ccc" fill="#fff" cy="50" cx="36.5" transform="rotate(-45.001 36.522 50)" style="stroke:rgb(247, 250, 248);fill:rgb(179, 196, 48);animation-play-state:paused" ></circle>
<circle r="5.8" stroke-miterlimit="10" stroke-width="2" stroke="#ccc" fill="#fff" cy="63.5" cx="50" transform="rotate(-45.001 50 63.479)" style="stroke:rgb(247, 250, 248);fill:rgb(179, 196, 48);animation-play-state:paused" ></circle>
<circle r="5.8" stroke-miterlimit="10" stroke-width="2" stroke="#ccc" fill="#fff" cy="63.5" cx="23" transform="rotate(-45.001 23.044 63.478)" style="stroke:rgb(247, 250, 248);fill:rgb(179, 196, 48);animation-play-state:paused" ></circle>
<circle r="5.8" stroke-miterlimit="10" stroke-width="2" stroke="#ccc" fill="#fff" cy="77" cx="36.5" transform="rotate(-45.001 36.522 76.956)" style="stroke:rgb(247, 250, 248);fill:rgb(179, 196, 48);animation-play-state:paused" ></circle>
<metadata xmlns:d="https://loading.io/stock/" style="animation-play-state:paused" ><d:name style="animation-play-state:paused" >drug</d:name>
<d:tags style="animation-play-state:paused" >drug,pill,cure,remedy,pharmacy,treatment,medicine</d:tags>
<d:license style="animation-play-state:paused" >by</d:license>
<d:slug style="animation-play-state:paused" >8d5cav</d:slug></metadata></g><!-- generated by https://loading.io/ --></svg>