<?xml version="1.0" encoding="utf-8"?><svg xml:space="preserve" viewBox="0 0 100 100" y="0" x="0" xmlns="http://www.w3.org/2000/svg" id="圖層_1" version="1.1" width="47px" height="47px" xmlns:xlink="http://www.w3.org/1999/xlink" style="width:100%;height:100%;background-size:initial;background-repeat-y:initial;background-repeat-x:initial;background-position-y:initial;background-position-x:initial;background-origin:initial;background-image:initial;background-color:rgb(241, 242, 243);background-clip:initial;background-attachment:initial;animation-play-state:paused" ><g class="ldl-scale" style="transform-origin:50% 50%;transform:rotate(0deg) scale(0.8, 0.8);animation-play-state:paused" ><path fill="#e0e0e0" d="M84.2 74.9L54.5 92.1c-1.6.9-3.5.4-4.4-1.2L14.6 29.5c-.9-1.6-.4-3.5 1.2-4.4L45.5 7.9c1.6-.9 3.5-.3 4.4 1.2l35.4 61.4c1 1.5.4 3.5-1.1 4.4z" style="fill:rgb(76, 86, 48);animation-play-state:paused" ></path>
<path stroke-miterlimit="10" stroke-width="5" stroke="#ccc" fill="#fff" d="M27.5 27.6l-.9 3.3-.9 3.3c-.5 1.7.4 3.2 1.8 3.5 1.4.4 2.9-.4 3.3-2.2l.9-3.3.9-3.3c.5-1.7-.4-3.2-1.8-3.5-1.4-.4-2.8.4-3.3 2.2z" style="stroke:rgb(247, 250, 248);fill:rgb(179, 196, 48);animation-play-state:paused" ></path>
<path stroke-miterlimit="10" stroke-width="5" stroke="#ccc" fill="#fff" d="M46.1 26.8l.9-3.3.9-3.3c.5-1.7-.4-3.2-1.8-3.5s-2.9.4-3.3 2.2l-.9 3.3-.9 3.2c-.5 1.7.4 3.2 1.8 3.5 1.4.4 2.8-.4 3.3-2.1z" style="stroke:rgb(247, 250, 248);fill:rgb(179, 196, 48);animation-play-state:paused" ></path>
<path stroke-miterlimit="10" stroke-width="5" stroke="#ccc" fill="#fff" d="M36.3 42.8l-.9 3.3-.9 3.3c-.5 1.7.4 3.2 1.8 3.5 1.4.4 2.9-.4 3.3-2.2l.9-3.3.9-3.3c.5-1.7-.4-3.2-1.8-3.5-1.4-.4-2.8.4-3.3 2.2z" style="stroke:rgb(247, 250, 248);fill:rgb(179, 196, 48);animation-play-state:paused" ></path>
<path stroke-miterlimit="10" stroke-width="5" stroke="#ccc" fill="#fff" d="M51.5 34l-.9 3.3-.9 3.3c-.5 1.7.4 3.2 1.8 3.5 1.4.4 2.9-.4 3.3-2.2l.9-3.3.9-3.3c.5-1.7-.4-3.2-1.8-3.5-1.3-.4-2.8.5-3.3 2.2z" style="stroke:rgb(247, 250, 248);fill:rgb(179, 196, 48);animation-play-state:paused" ></path>
<path stroke-miterlimit="10" stroke-width="5" stroke="#ccc" fill="#fff" d="M45.1 58l-.9 3.3-.9 3.3c-.5 1.7.4 3.2 1.8 3.5 1.4.4 2.9-.4 3.3-2.2l.9-3.3.9-3.3c.5-1.7-.4-3.2-1.8-3.5-1.4-.3-2.8.5-3.3 2.2z" style="stroke:rgb(247, 250, 248);fill:rgb(179, 196, 48);animation-play-state:paused" ></path>
<path stroke-miterlimit="10" stroke-width="5" stroke="#ccc" fill="#fff" d="M60.3 49.2l-.9 3.3-.9 3.3c-.5 1.7.4 3.2 1.8 3.5 1.4.4 2.9-.4 3.3-2.2l.9-3.3.9-3.3c.5-1.7-.4-3.2-1.8-3.5s-2.8.5-3.3 2.2z" style="stroke:rgb(247, 250, 248);fill:rgb(179, 196, 48);animation-play-state:paused" ></path>
<path stroke-miterlimit="10" stroke-width="5" stroke="#ccc" fill="#fff" d="M53.9 73.2l-.9 3.4-.9 3.3c-.5 1.7.4 3.2 1.8 3.5 1.4.4 2.9-.4 3.3-2.2l.9-3.3.9-3.3c.5-1.7-.4-3.2-1.8-3.5-1.4-.4-2.8.4-3.3 2.1z" style="stroke:rgb(247, 250, 248);fill:rgb(179, 196, 48);animation-play-state:paused" ></path>
<path stroke-miterlimit="10" stroke-width="5" stroke="#ccc" fill="#fff" d="M69.1 64.4l-.9 3.3-.9 3.3c-.5 1.7.4 3.2 1.8 3.5 1.4.4 2.9-.4 3.3-2.2l.9-3.3.9-3.3c.5-1.7-.4-3.2-1.8-3.5-1.4-.3-2.8.5-3.3 2.2z" style="stroke:rgb(247, 250, 248);fill:rgb(179, 196, 48);animation-play-state:paused" ></path>
<g style="animation-play-state:paused" ><path fill="#77a4bd" d="M30.9 35.6c-.5 1.7-1.9 2.5-3.3 2.2s-2.3-1.8-1.8-3.5l.9-3.3 5.1 1.4-.9 3.2z" style="fill:rgb(128, 170, 243);animation-play-state:paused" ></path>
<path fill="#fff" d="M30.9 25.4c1.4.4 2.3 1.8 1.8 3.5l-.9 3.3-5.1-1.4.9-3.3c.4-1.7 1.8-2.5 3.3-2.1z" style="fill:rgb(179, 196, 48);animation-play-state:paused" ></path></g>
<g style="animation-play-state:paused" ><path fill="#77a4bd" d="M46.1 26.8c-.5 1.7-1.9 2.5-3.3 2.2-1.4-.4-2.3-1.8-1.8-3.5l.9-3.3 5.1 1.4-.9 3.2z" style="fill:rgb(128, 170, 243);animation-play-state:paused" ></path>
<path fill="#fff" d="M46.1 16.6c1.4.4 2.3 1.8 1.8 3.5l-.9 3.3-5.1-1.4.9-3.3c.4-1.7 1.9-2.5 3.3-2.1z" style="fill:rgb(179, 196, 48);animation-play-state:paused" ></path></g>
<g style="animation-play-state:paused" ><path fill="#77a4bd" d="M39.7 50.8c-.5 1.7-1.9 2.5-3.3 2.2s-2.3-1.8-1.8-3.5l.9-3.3 5.1 1.4-.9 3.2z" style="fill:rgb(128, 170, 243);animation-play-state:paused" ></path>
<path fill="#fff" d="M39.6 40.6c1.4.4 2.3 1.8 1.8 3.5l-.9 3.3-5.1-1.4.9-3.3c.5-1.7 1.9-2.5 3.3-2.1z" style="fill:rgb(179, 196, 48);animation-play-state:paused" ></path></g>
<g style="animation-play-state:paused" ><path fill="#77a4bd" d="M54.9 42c-.5 1.7-1.9 2.5-3.3 2.2s-2.3-1.8-1.8-3.5l.9-3.3 5.1 1.4-.9 3.2z" style="fill:rgb(128, 170, 243);animation-play-state:paused" ></path>
<path fill="#fff" d="M54.9 31.8c1.4.4 2.3 1.8 1.8 3.5l-.9 3.3-5.1-1.4.9-3.3c.4-1.6 1.9-2.5 3.3-2.1z" style="fill:rgb(179, 196, 48);animation-play-state:paused" ></path></g>
<g style="animation-play-state:paused" ><path fill="#77a4bd" d="M48.5 66c-.5 1.7-1.9 2.5-3.3 2.2s-2.3-1.8-1.8-3.5l.9-3.3 5.1 1.4-.9 3.2z" style="fill:rgb(128, 170, 243);animation-play-state:paused" ></path>
<path fill="#fff" d="M48.4 55.8c1.4.4 2.3 1.8 1.8 3.5l-.9 3.3-5.1-1.4.9-3.3c.5-1.6 1.9-2.4 3.3-2.1z" style="fill:rgb(179, 196, 48);animation-play-state:paused" ></path></g>
<g style="animation-play-state:paused" ><path fill="#77a4bd" d="M63.7 57.2c-.5 1.7-1.9 2.5-3.3 2.2s-2.3-1.8-1.8-3.5l.9-3.3 5.1 1.4-.9 3.2z" style="fill:rgb(128, 170, 243);animation-play-state:paused" ></path>
<path fill="#fff" d="M63.7 47.1c1.4.4 2.3 1.8 1.8 3.5l-.9 3.3-5.1-1.4.9-3.3c.4-1.7 1.9-2.5 3.3-2.1z" style="fill:rgb(179, 196, 48);animation-play-state:paused" ></path></g>
<g style="animation-play-state:paused" ><path fill="#77a4bd" d="M57.3 81.2c-.5 1.7-1.9 2.5-3.3 2.2-1.4-.4-2.3-1.8-1.8-3.5l.9-3.3 5.1 1.4-.9 3.2z" style="fill:rgb(128, 170, 243);animation-play-state:paused" ></path>
<path fill="#fff" d="M57.2 71.1c1.4.4 2.3 1.8 1.8 3.5l-.9 3.3-5.1-1.3.9-3.3c.5-1.8 1.9-2.6 3.3-2.2z" style="fill:rgb(179, 196, 48);animation-play-state:paused" ></path></g>
<g style="animation-play-state:paused" ><path fill="#77a4bd" d="M72.5 72.4c-.5 1.7-1.9 2.5-3.3 2.2-1.4-.4-2.3-1.8-1.8-3.5l.9-3.3 5.1 1.4-.9 3.2z" style="fill:rgb(128, 170, 243);animation-play-state:paused" ></path>
<path fill="#fff" d="M72.4 62.3c1.4.4 2.3 1.8 1.8 3.5l-.9 3.3-5.1-1.4.9-3.3c.5-1.7 1.9-2.5 3.3-2.1z" style="fill:rgb(179, 196, 48);animation-play-state:paused" ></path></g>
<metadata xmlns:d="https://loading.io/stock/" style="animation-play-state:paused" ><d:name style="animation-play-state:paused" >drug</d:name>
<d:tags style="animation-play-state:paused" >drug,pill,cure,remedy,pharmacy,treatment,medicine</d:tags>
<d:license style="animation-play-state:paused" >by</d:license>
<d:slug style="animation-play-state:paused" >4x6m41</d:slug></metadata></g><!-- generated by https://loading.io/ --></svg>