<?xml version="1.0" encoding="utf-8"?><svg xml:space="preserve" viewBox="0 0 100 100" y="0" x="0" xmlns="http://www.w3.org/2000/svg" id="圖層_1" version="1.1" width="47px" height="47px" xmlns:xlink="http://www.w3.org/1999/xlink" style="width:100%;height:100%;background-size:initial;background-repeat-y:initial;background-repeat-x:initial;background-position-y:initial;background-position-x:initial;background-origin:initial;background-image:initial;background-color:rgb(241, 242, 243);background-clip:initial;background-attachment:initial;animation-play-state:paused" ><g class="ldl-scale" style="transform-origin:50% 50%;transform:rotate(0deg) scale(0.8, 0.8);animation-play-state:paused" ><path stroke-miterlimit="10" stroke-width="3.5" stroke="#333" fill="#f8b26a" d="M78.1 49.8c7.7-7.7 7.7-20.2 0-27.9s-20.2-7.7-27.9 0L36 36l28 28 14.1-14.2z" style="stroke:rgb(128, 170, 243);fill:rgb(76, 86, 48);animation-play-state:paused" ></path>
<path stroke-width="3.5" stroke="#333" fill="#e15b64" stroke-miterlimit="10" d="M21.9 78.1c7.7 7.7 20.2 7.7 27.9 0L64 64 36 36 21.9 50.2c-7.7 7.7-7.7 20.2 0 27.9z" style="stroke:rgb(128, 170, 243);fill:rgb(247, 250, 248);animation-play-state:paused" ></path>
<path stroke-miterlimit="10" stroke-width="3.5" stroke-linejoin="round" stroke="#000" opacity=".2" d="M78.1 21.9c-.5-.5-1-1-1.6-1.4 1.6 6.7-.4 14.4-5.9 19.9L55.5 55.5 40.4 70.6c-5.5 5.5-13.1 7.5-19.9 5.9.4.5.9 1.1 1.4 1.6 7.7 7.7 20.2 7.7 27.9 0L64 64l14.1-14.1c7.7-7.8 7.7-20.3 0-28z" style="stroke:rgb(152, 79, 72);fill:rgb(152, 79, 72);animation-play-state:paused" ></path>
<path d="M29.3 53.7l-4.8 4.8" stroke-miterlimit="10" stroke-width="3.5" stroke="#fff" fill="none" stroke-linecap="round" style="stroke:rgb(179, 196, 48);animation-play-state:paused" ></path>
<path d="M58.5 24.5L34.3 48.7" stroke-miterlimit="10" stroke-width="3.5" stroke="#fff" fill="none" stroke-linecap="round" style="stroke:rgb(179, 196, 48);animation-play-state:paused" ></path>
<metadata xmlns:d="https://loading.io/stock/" style="animation-play-state:paused" ><d:name style="animation-play-state:paused" >drug</d:name>
<d:tags style="animation-play-state:paused" >drug,pill,cure,remedy,pharmacy,treatment,medicine</d:tags>
<d:license style="animation-play-state:paused" >by</d:license>
<d:slug style="animation-play-state:paused" >wv7n5</d:slug></metadata></g><!-- generated by https://loading.io/ --></svg>